<svg width="40" height="40" viewBox="0 0 40 40" fill="none" xmlns="http://www.w3.org/2000/svg">
<path d="M24.0585 21.6217C24.5068 21.6217 24.8785 21.8433 25.2018 22.2817C25.5218 22.7233 25.6918 23.2617 25.6918 23.9067C25.6918 24.5483 25.5218 25.0917 25.2018 25.5283C24.8802 25.97 24.5068 26.1883 24.0585 26.1883C23.5952 26.1883 23.1885 25.97 22.8668 25.5283C22.5468 25.0917 22.3768 24.5483 22.3768 23.9067C22.3768 23.2617 22.5468 22.7233 22.8668 22.2817C23.1868 21.8417 23.5935 21.6217 24.0585 21.6217ZM29.7918 15.69C31.0352 17.0417 31.6668 18.6817 31.6668 20.6117C31.6668 21.8583 31.5235 22.9833 31.2352 23.9833C30.9435 24.9783 30.5785 25.79 30.1452 26.415C29.7052 27.0417 29.1652 27.59 28.5218 28.0633C27.8785 28.54 27.2868 28.8833 26.7468 29.1017C26.2052 29.3217 25.5885 29.49 24.8952 29.6117C24.2002 29.73 23.6852 29.7967 23.3235 29.8167C22.9685 29.8317 22.5935 29.84 22.1818 29.84C22.0902 29.84 21.7768 29.8467 21.2702 29.865C20.7685 29.8867 20.3368 29.8917 20.0002 29.8917C19.6635 29.8917 19.2318 29.8867 18.7302 29.865C18.2235 29.8467 17.9102 29.84 17.8185 29.84C17.4085 29.84 17.0318 29.8317 16.6768 29.8167C16.3135 29.7967 15.8002 29.73 15.1052 29.6117C14.4002 29.4917 13.7952 29.3217 13.2535 29.1017C12.7135 28.8833 12.1202 28.54 11.4802 28.0633C10.8352 27.59 10.2952 27.0417 9.85516 26.415C9.42016 25.79 9.05683 24.9783 8.76516 23.9833C8.47683 22.9833 8.3335 21.8583 8.3335 20.6117C8.3335 18.6817 8.96516 17.04 10.2085 15.69C10.0718 15.6217 10.0668 14.945 10.1952 13.6617C10.3002 12.3767 10.5735 11.1917 11.0202 10.1083C12.5768 10.2733 14.5035 11.1567 16.8052 12.7433C17.5818 12.545 18.6402 12.4383 20.0002 12.4383C21.4202 12.4383 22.4852 12.545 23.1968 12.745C24.2452 12.0367 25.2468 11.46 26.2052 11.0217C27.1785 10.5867 27.8802 10.3283 28.3202 10.26L28.9802 10.11C29.4302 11.1917 29.7035 12.3767 29.8068 13.6633C29.9335 14.945 29.9285 15.6217 29.7918 15.69ZM20.0502 28.7233C22.8635 28.7233 24.9735 28.3867 26.4185 27.7117C27.8435 27.0383 28.5718 25.6483 28.5718 23.5517C28.5718 22.335 28.1168 21.3183 27.2018 20.505C26.7385 20.0667 26.1802 19.7967 25.5535 19.695C24.9285 19.5933 23.9718 19.5933 22.6868 19.695C21.4052 19.7983 20.5235 19.845 20.0502 19.845C19.4085 19.845 18.7168 19.815 17.8518 19.7467C16.9852 19.68 16.3052 19.6383 15.8135 19.6167C15.3235 19.6017 14.7985 19.6617 14.2168 19.7967C13.6418 19.9333 13.1685 20.17 12.7952 20.505C11.9268 21.2867 11.4785 22.3 11.4785 23.5517C11.4785 25.6483 12.1885 27.0383 13.6118 27.7117C15.0285 28.3867 17.1335 28.7233 19.9485 28.7233H20.0502ZM15.9935 21.6217C16.4402 21.6217 16.8135 21.8433 17.1352 22.2817C17.4552 22.7233 17.6252 23.2617 17.6252 23.9067C17.6252 24.5483 17.4552 25.0917 17.1352 25.5283C16.8152 25.97 16.4402 26.1883 15.9935 26.1883C15.5285 26.1883 15.1235 25.97 14.8002 25.5283C14.4802 25.0917 14.3102 24.5483 14.3102 23.9067C14.3102 23.2617 14.4802 22.7233 14.8002 22.2817C15.1218 21.8417 15.5268 21.6217 15.9935 21.6217Z" fill="black"/>
</svg>
